<svg xmlns="http://www.w3.org/2000/svg" width="10" height="7.996" viewBox="0 0 10 7.996">
  <g id="arrow-right-double" transform="translate(0)">
    <path id="Path_4" data-name="Path 4" d="M7.588,3.994,5.293,6.289A1,1,0,0,0,6.707,7.7l3-3a1,1,0,0,0,0-1.418L6.715.293A1,1,0,0,0,5.3,1.707Z" fill="#7b68ee" fill-rule="evenodd"/>
    <path id="Path_5" data-name="Path 5" d="M2.588,3.994.293,6.289A1,1,0,0,0,1.708,7.7l3-3a1,1,0,0,0,0-1.418L1.715.293A1,1,0,0,0,.3,1.707Z" fill="#7b68ee" fill-rule="evenodd"/>
  </g>
</svg>
